<?xml version="1.0" encoding="utf-8"?>
<!-- Generator: Adobe Illustrator 16.0.0, SVG Export Plug-In . SVG Version: 6.00 Build 0)  -->
<!DOCTYPE svg PUBLIC "-//W3C//DTD SVG 1.1//EN" "http://www.w3.org/Graphics/SVG/1.1/DTD/svg11.dtd">
<svg version="1.1" id="Layer_1" xmlns="http://www.w3.org/2000/svg" xmlns:xlink="http://www.w3.org/1999/xlink" x="0px" y="0px"
	 width="144px" height="144px" viewBox="0 0 144 144" enable-background="new 0 0 144 144" xml:space="preserve">
<path fill="#8B9DC3" d="M144,132c0,6.627-5.373,12-12,12H12c-6.627,0-12-5.373-12-12V12C0,5.373,5.373,0,12,0h120
	c6.627,0,12,5.373,12,12V132z"/>
<g>
	<path fill="#FFFFFF" d="M108.051,129.075c-0.775,0-1.523-0.147-2.246-0.374c-9.563,6.314-21.008,10.015-33.305,10.015
		c-12.178,0-23.509-3.649-33.022-9.85c-0.552,0.114-1.118,0.209-1.688,0.209h-6.119c11.205,8.979,25.389,14.388,40.829,14.388
		c15.438,0,29.631-5.408,40.842-14.388H108.051z"/>
	<path fill="#FFFFFF" d="M96.786,21.527l1.392,1.671c20.629,9.698,34.977,30.606,34.977,54.874c0,2.904-0.271,5.736-0.68,8.537h4.81
		c0.354-2.814,0.616-5.633,0.616-8.537c0-27.485-17.053-51.013-41.112-60.682L96.786,21.527L96.786,21.527z"/>
	<path fill="#FFFFFF" d="M12.521,86.609c-0.399-2.803-0.676-5.633-0.676-8.537c0-24.268,14.343-45.176,34.966-54.874l1.399-1.671
		v-4.133C24.148,27.07,7.094,50.594,7.094,78.077c0,2.901,0.258,5.739,0.625,8.532H12.521L12.521,86.609z"/>
</g>
<g>
	<path fill="#FFFFFF" d="M97.257,107.871l-2.466-19.363c-0.85-6.646-6.497-11.552-13.188-11.552H63.41
		c-6.692,0-12.346,4.903-13.186,11.552l-2.47,19.401c-0.173,1.352,0.246,3.063,1.152,4.09c0.902,1.021,2.204,1.946,3.568,1.946
		h40.064c1.366,0,2.659-0.944,3.571-1.973C97.01,110.953,97.43,109.23,97.257,107.871z"/>
	<circle fill="#FFFFFF" cx="72.507" cy="58.353" r="14.161"/>
</g>
<path fill="#FFFFFF" d="M132.909,90.458h-15.197c-1.456,0-2.631,1.183-2.631,2.628v30.854c0,1.453,1.175,2.631,2.631,2.631h15.197
	c1.446,0,2.624-1.178,2.624-2.631V93.086C135.533,91.641,134.355,90.458,132.909,90.458z M121.563,92.057h7.498
	c0.188,0,0.342,0.285,0.342,0.637c0,0.347-0.154,0.636-0.342,0.636h-7.498c-0.195,0-0.347-0.289-0.347-0.636
	C121.216,92.342,121.365,92.057,121.563,92.057z M125.311,123.977c-0.93,0-1.678-0.754-1.678-1.679c0-0.924,0.748-1.682,1.678-1.682
	c0.918,0,1.674,0.758,1.674,1.682C126.984,123.223,126.229,123.977,125.311,123.977z M133.559,118.221h-16.506V94.9h16.506V118.221z
	"/>
<path fill="#FFFFFF" d="M88.23,0.423H56.777c-1.316,0-2.389,1.069-2.389,2.389v29.156c0,1.321,1.072,2.388,2.389,2.388h31.456
	c1.324,0,2.391-1.066,2.391-2.388V2.812C90.621,1.493,89.557,0.423,88.23,0.423z M84.357,20.18c0,0.439-0.352,0.796-0.789,0.796
	h-6.666c-0.45,0-0.805,0.358-0.805,0.799v6.672c0,0.44-0.359,0.795-0.795,0.795h-5.591c-0.442,0-0.798-0.355-0.798-0.795v-6.672
	c0-0.44-0.353-0.799-0.792-0.799h-6.675c-0.441,0-0.797-0.357-0.797-0.796v-5.585c0-0.439,0.356-0.794,0.797-0.794h6.675
	c0.439,0,0.792-0.356,0.792-0.797v-6.67c0-0.441,0.356-0.798,0.798-0.798h5.591c0.436,0,0.795,0.357,0.795,0.798v6.669
	c0,0.44,0.354,0.797,0.805,0.797h6.666c0.438,0,0.789,0.354,0.789,0.794V20.18z"/>
<g>
	<path fill="#FFFFFF" d="M14.78,101.073l1.793,0.345c3.476,0.68,8.203,2.46,11.02,7.079l1.078,1.769l6.678-10.906
		c0.801-1.315,1.224-2.814,1.222-4.342c0-2.925-1.482-5.582-3.98-7.109c-3.911-2.393-9.045-1.156-11.438,2.769L14.78,101.073z
		 M31.27,90.076c1.73,1.051,2.764,2.908,2.761,4.941c0.003,1.058-0.293,2.102-0.846,3.01l-4.579,7.496
		c-2.878-3.609-6.802-5.35-9.789-6.176l4.503-7.365C24.977,89.271,28.552,88.412,31.27,90.076z"/>
	<path fill="#FFFFFF" d="M21.143,121.932l5.972-9.757l-0.078-0.179c-0.49-1.143-1.091-2.122-1.771-2.992l-5.735,9.409
		c-0.222,0.356-0.682,0.469-1.039,0.247c-0.233-0.137-0.365-0.385-0.365-0.641c0-0.142,0.036-0.272,0.114-0.392
		c0,0,5.948-9.646,6.074-9.711c-3.369-3.438-7.947-4.408-10.144-4.671l-0.239-0.029l-6.371,10.409
		c-0.763,1.251-1.167,2.683-1.167,4.144c0,2.803,1.424,5.334,3.806,6.795C13.944,126.861,18.85,125.67,21.143,121.932z"/>
</g>
</svg>
